<svg width="193" height="193" viewBox="0 0 193 193" fill="none" xmlns="http://www.w3.org/2000/svg">
<rect x="0.595993" y="0.00354004" width="192" height="192" rx="40" fill="white"/>
<path d="M140.829 47.1686H117.408L101.915 69.1841H102.419L95.7171 78.6297C90.5285 85.9682 95.7171 96.213 104.725 96.213C108.256 96.213 111.571 94.4692 113.661 91.5629L124.615 76.2319L144 47.8952C144.144 47.6772 144.216 47.4592 144.36 47.1686H140.829Z" fill="#00A9DE"/>
<path d="M59.6132 47.1691V69.1846H101.915L117.408 47.1691H59.6132Z" fill="#00A9DE"/>
<path opacity="0.3" d="M59.6132 47.1691V69.1846H101.915L117.408 47.1691H59.6132Z" fill="#253040"/>
<path d="M92.6182 121.133L94.8522 118.009L97.8789 113.795C103.14 106.456 97.9509 96.2841 88.9429 96.2841C85.4118 96.2841 82.0968 98.0279 80.007 100.934L70.4945 114.449L49.596 144.965H52.4785H75.7552L92.6182 121.133Z" fill="#B2F000"/>
<path d="M137.657 121.134H92.6169L75.7539 144.893H137.657V121.134Z" fill="#B2F000"/>
<path opacity="0.3" d="M137.657 121.134H92.6169L75.7539 144.893H137.657V121.134Z" fill="#253040"/>
</svg>
