<svg width="270" height="99" viewBox="0 0 270 99" fill="none" xmlns="http://www.w3.org/2000/svg">
<path d="M43.3708 38.5164H35.9574V52.7979C35.9574 54.0308 36.2377 54.9115 36.7909 55.4472C37.3515 55.983 38.1777 56.2765 39.2694 56.3426C40.3685 56.4013 41.7332 56.394 43.3634 56.3132V62.0816C38.4211 62.6761 34.873 62.2504 32.7191 60.8046C30.5651 59.3589 29.4881 56.6875 29.4881 52.8052V38.5164H24V32.3297H29.5029V25.9008L35.9574 24V32.3297H43.3708V38.5164Z" fill="white"/>
<path d="M70.7156 32.3296H77.1701V62.0742H70.7156V57.7883C68.2813 61.1568 64.7922 62.8448 60.2483 62.8448C56.1396 62.8448 52.6357 61.3256 49.722 58.2946C46.8083 55.2637 45.3551 51.5649 45.3551 47.1982C45.3551 42.7949 46.8083 39.0887 49.722 36.0724C52.6283 33.0561 56.1396 31.5516 60.2483 31.5516C64.7922 31.5516 68.2813 33.2176 70.7156 36.5494V32.3296ZM54.5094 54.0161C56.3018 55.8214 58.5517 56.7241 61.2663 56.7241C63.9734 56.7241 66.2307 55.8214 68.0232 54.0161C69.8157 52.2107 70.7156 49.943 70.7156 47.2055C70.7156 44.4681 69.8157 42.2004 68.0232 40.395C66.2307 38.5897 63.9734 37.687 61.2663 37.687C58.5517 37.687 56.3018 38.5897 54.5094 40.395C52.7169 42.2004 51.8169 44.4681 51.8169 47.2055C51.8169 49.943 52.7169 52.2107 54.5094 54.0161Z" fill="white"/>
<path d="M132.31 32.3296H138.764V62.0742H132.31V57.7883C129.875 61.1568 126.386 62.8448 121.842 62.8448C117.734 62.8448 114.23 61.3256 111.316 58.2946C108.402 55.2637 106.949 51.5649 106.949 47.1982C106.949 42.7949 108.402 39.0887 111.316 36.0724C114.222 33.0561 117.734 31.5516 121.842 31.5516C126.386 31.5516 129.875 33.2176 132.31 36.5494V32.3296ZM116.103 54.0161C117.896 55.8214 120.146 56.7241 122.86 56.7241C125.568 56.7241 127.825 55.8214 129.617 54.0161C131.41 52.2107 132.31 49.943 132.31 47.2055C132.31 44.4681 131.41 42.2004 129.617 40.395C127.825 38.5897 125.568 37.687 122.86 37.687C120.146 37.687 117.896 38.5897 116.103 40.395C114.311 42.2004 113.411 44.4681 113.411 47.2055C113.411 49.943 114.311 52.2107 116.103 54.0161Z" fill="white"/>
<path d="M161.993 31.5591C166.102 31.5591 169.605 33.0782 172.519 36.1092C175.426 39.1402 176.886 42.839 176.886 47.2056C176.886 51.609 175.433 55.3151 172.519 58.3314C169.605 61.3477 166.102 62.8522 161.993 62.8522C157.449 62.8522 153.96 61.1863 151.526 57.8544V73.978H145.071V32.3297H151.526V36.6156C153.96 33.2397 157.449 31.5591 161.993 31.5591ZM154.218 54.0162C156.011 55.8215 158.26 56.7242 160.975 56.7242C163.682 56.7242 165.939 55.8215 167.732 54.0162C169.524 52.2108 170.424 49.9431 170.424 47.2056C170.424 44.4682 169.524 42.2005 167.732 40.3951C165.939 38.5898 163.682 37.6871 160.975 37.6871C158.26 37.6871 156.011 38.5898 154.218 40.3951C152.426 42.2005 151.526 44.4682 151.526 47.2056C151.526 49.9431 152.426 52.2108 154.218 54.0162Z" fill="white"/>
<path d="M205.256 32.3296H211.71V62.0742H205.256V57.7883C202.822 61.1568 199.333 62.8448 194.789 62.8448C190.68 62.8448 187.176 61.3256 184.262 58.2946C181.349 55.2637 179.896 51.5649 179.896 47.1982C179.896 42.7949 181.349 39.0887 184.262 36.0724C187.169 33.0561 190.68 31.5516 194.789 31.5516C199.333 31.5516 202.822 33.2176 205.256 36.5494V32.3296ZM189.05 54.0161C190.842 55.8214 193.092 56.7241 195.807 56.7241C198.514 56.7241 200.771 55.8214 202.564 54.0161C204.356 52.2107 205.256 49.943 205.256 47.2055C205.256 44.4681 204.356 42.2004 202.564 40.395C200.771 38.5897 198.514 37.687 195.807 37.687C193.092 37.687 190.842 38.5897 189.05 40.395C187.257 42.2004 186.357 44.4681 186.357 47.2055C186.357 49.943 187.257 52.2107 189.05 54.0161Z" fill="white"/>
<path d="M238.178 32.3297H245.053L233.575 63.0283C230.705 70.7195 225.837 74.3743 218.984 73.978V67.9674C221.02 68.0848 222.65 67.6592 223.889 66.6904C225.121 65.7217 226.139 64.2025 226.936 62.1403L227.238 61.5458L214.558 32.337H221.617L230.536 53.9281L238.178 32.3297Z" fill="white"/>
<path d="M100.708 32.3297L96.3711 38.3989H96.3858L93.509 42.384C92.0706 44.3801 93.5016 47.1616 95.9728 47.1616C96.9538 47.1616 97.8759 46.6919 98.4439 45.8993L105.112 36.6082L108.203 32.3297H100.708V32.3297Z" fill="#00A9DE"/>
<path d="M82.9901 32.3297V38.3989H96.3711L100.709 32.3297H82.9901Z" fill="#0B84AE"/>
<path d="M91.1856 56.0051L92.0192 54.8455L94.0993 51.9467C95.5378 49.9431 94.0993 47.1617 91.6208 47.1617C90.6398 47.1617 89.7177 47.6314 89.1497 48.424L82.3928 57.7884L79.2578 62.0744H86.9957L91.2151 56.0051H91.1856V56.0051Z" fill="#B2F000"/>
<path d="M105.717 56.0051H91.215L86.9956 62.0744H105.717V56.0051Z" fill="#87B613"/>
</svg>
